<?xml version="1.0" encoding="iso-8859-1"?>
<!-- Generator: Adobe Illustrator 18.0.0, SVG Export Plug-In . SVG Version: 6.00 Build 0)  -->
<!DOCTYPE svg PUBLIC "-//W3C//DTD SVG 1.1//EN" "http://www.w3.org/Graphics/SVG/1.1/DTD/svg11.dtd">
<svg version="1.1" id="Capa_1" xmlns="http://www.w3.org/2000/svg" xmlns:xlink="http://www.w3.org/1999/xlink" x="0px" y="0px"
	 viewBox="0 0 284.356 284.356" style="enable-background:new 0 0 284.356 284.356;" xml:space="preserve">
<path d="M283.755,115.755c-0.564-3.563-3.201-6.445-6.7-7.322l-44.634-11.192c-2.567-35.594-24.945-55.075-63.665-55.075
	c-19.242,0-38.994,4.754-52.842,9.017c-10.352-13.838-36.18-37.666-91.326-37.666c-5.262,0-10.744,0.223-16.296,0.662
	c-4.589,0.363-8.164,4.13-8.287,8.731c-0.021,0.781-0.383,19.403,10.894,42.358c8.535,17.376,25.438,40.303,58.561,58.372
	L18.397,258.656c-1.046,2.765-0.667,5.867,1.014,8.299c1.681,2.433,4.448,3.884,7.404,3.884h156.887c2.405,0,4.71-0.962,6.4-2.673
	c1.691-1.711,2.627-4.026,2.599-6.431l-0.731-62.903l59.536-13.398c4.07-0.916,6.978-4.509,7.023-8.681
	c0.047-4.172-2.78-7.829-6.829-8.834c-3.458-0.859-6.287-1.607-8.603-2.258c1.792-0.89,14.678-7.161,20.127-9.965
	C279.304,147.874,286.594,133.695,283.755,115.755z M190.102,109.013c-0.268,0.018-0.532,0.027-0.795,0.027
	c-6.155,0-11.291-4.805-11.691-10.939c-0.421-6.428,4.476-12.016,10.914-12.455c0.272-0.019,0.538-0.027,0.801-0.027
	c6.154,0,11.289,4.805,11.689,10.939C201.441,102.99,196.543,108.578,190.102,109.013z"/>
<g>
</g>
<g>
</g>
<g>
</g>
<g>
</g>
<g>
</g>
<g>
</g>
<g>
</g>
<g>
</g>
<g>
</g>
<g>
</g>
<g>
</g>
<g>
</g>
<g>
</g>
<g>
</g>
<g>
</g>
</svg>
