<svg height="512pt" viewBox="0 0 512 512" width="512pt" xmlns="http://www.w3.org/2000/svg"><path d="m150 67.453125v234.546875h212v-234.546875l-106-67.453125zm167.382812 72.980469c19.460938 19.460937 19.460938 51.121094 0 70.578125l-61.382812 61.382812-61.382812-61.378906c-19.457032-19.460937-19.457032-51.121094 0-70.582031 16.625-16.625 42.164062-19.042969 61.382812-7.257813 19.21875-11.785156 44.757812-9.367187 61.382812 7.257813zm0 0"/><path d="m244.800781 162.515625c-.265625-.292969-.535156-.585937-.816406-.867187-3.882813-3.882813-8.980469-5.820313-14.078125-5.820313s-10.195312 1.9375-14.074219 5.820313c-7.761719 7.761718-7.761719 20.390624 0 28.152343l40.167969 40.167969 40.171875-40.167969c7.761719-7.761719 7.761719-20.390625 0-28.152343-7.765625-7.761719-20.394531-7.761719-28.15625 0-.28125.28125-.550781.574218-.8125.867187l-11.203125 12.578125zm0 0"/><path d="m150 332h30v90h-30zm0 0"/><path d="m210 332h92v90h-92zm0 0"/><path d="m332 332h30v90h-30zm0 0"/><path d="m392 122h120v75h-120zm0 0"/><path d="m392 512h120v-285h-120zm45-255h30v45h-30zm0 75h30v45h-30zm0 75h30v45h-30zm0 0"/><path d="m0 512h120v-285h-120zm45-255h30v45h-30zm0 75h30v45h-30zm0 75h30v45h-30zm0 0"/><path d="m0 122h120v75h-120zm0 0"/><path d="m150 452h212v60h-212zm0 0"/></svg>